<?xml version="1.0" encoding="UTF-8"?>
<svg xmlns="http://www.w3.org/2000/svg" xmlns:xlink="http://www.w3.org/1999/xlink" width="55px" height="55px" viewBox="0 0 55 55" version="1.1">
<g id="surface1">
<path style=" stroke:none;fill-rule:nonzero;fill:rgb(16.078432%,70.980394%,29.019609%);fill-opacity:1;" d="M 24.355469 0.222656 C 28.433594 -0.242188 32.613281 0.230469 36.484375 1.589844 C 39.328125 2.585938 42.003906 4.050781 44.371094 5.910156 C 46.074219 7.25 47.621094 8.792969 48.960938 10.492188 C 51.035156 13.117188 52.621094 16.121094 53.613281 19.3125 C 54.824219 23.171875 55.160156 27.296875 54.597656 31.300781 C 54.109375 34.820312 52.921875 38.242188 51.132812 41.3125 C 49.480469 44.15625 47.308594 46.695312 44.757812 48.773438 C 42.222656 50.839844 39.3125 52.453125 36.210938 53.496094 C 32.378906 54.796875 28.253906 55.234375 24.230469 54.761719 C 20.539062 54.328125 16.9375 53.140625 13.714844 51.28125 C 10.339844 49.339844 7.386719 46.671875 5.121094 43.507812 C 3.1875 40.820312 1.75 37.777344 0.898438 34.582031 C 0.402344 32.746094 0.117188 30.855469 0 28.957031 L 0 26.078125 C 0.0703125 24.910156 0.195312 23.75 0.40625 22.601562 C 0.972656 19.480469 2.085938 16.460938 3.675781 13.71875 C 5.277344 10.964844 7.359375 8.488281 9.804688 6.445312 C 13.902344 3.003906 19.03125 0.804688 24.355469 0.222656 M 24.433594 5.445312 C 23.851562 5.816406 23.386719 6.355469 23.09375 6.980469 C 21.894531 6.894531 20.667969 7.402344 19.890625 8.320312 C 19.316406 8.980469 18.980469 9.84375 18.964844 10.71875 C 18.09375 10.597656 17.179688 10.769531 16.429688 11.230469 C 15.628906 11.707031 15.003906 12.484375 14.730469 13.375 C 14.472656 14.183594 14.507812 15.070312 14.792969 15.867188 C 13.769531 16.464844 12.960938 17.421875 12.558594 18.539062 C 12.183594 19.550781 12.140625 20.679688 12.421875 21.71875 C 12.769531 23.019531 13.65625 24.15625 14.8125 24.84375 C 14.289062 26.160156 14.582031 27.761719 15.558594 28.792969 C 15.746094 28.972656 16.089844 28.933594 16.230469 28.710938 C 16.359375 28.539062 16.328125 28.277344 16.175781 28.128906 C 15.511719 27.375 15.289062 26.261719 15.609375 25.3125 C 15.835938 24.613281 16.335938 24.011719 16.980469 23.660156 C 17.179688 23.5625 17.296875 23.328125 17.226562 23.113281 C 17.160156 22.867188 16.863281 22.714844 16.625 22.824219 C 16.074219 23.105469 15.597656 23.53125 15.238281 24.035156 C 14.417969 23.550781 13.765625 22.78125 13.429688 21.886719 C 13.03125 20.851562 13.054688 19.660156 13.496094 18.644531 C 13.851562 17.804688 14.492188 17.09375 15.277344 16.636719 C 15.945312 16.230469 16.726562 16.035156 17.503906 16.023438 C 17.773438 16.03125 18.003906 15.757812 17.945312 15.496094 C 17.910156 15.285156 17.714844 15.121094 17.503906 15.125 C 16.863281 15.117188 16.222656 15.242188 15.621094 15.460938 C 15.433594 14.902344 15.410156 14.277344 15.578125 13.707031 C 15.777344 13.011719 16.253906 12.398438 16.875 12.023438 C 17.589844 11.578125 18.496094 11.46875 19.296875 11.722656 C 19.5 11.796875 19.75 11.707031 19.851562 11.515625 C 19.957031 11.34375 19.882812 11.140625 19.878906 10.957031 C 19.8125 9.992188 20.289062 9.019531 21.070312 8.457031 C 21.597656 8.066406 22.257812 7.855469 22.914062 7.882812 C 23.636719 7.898438 24.351562 8.195312 24.871094 8.699219 C 25.429688 9.222656 25.761719 9.972656 25.777344 10.738281 C 25.773438 10.882812 25.808594 11.039062 25.921875 11.136719 C 26.101562 11.324219 26.433594 11.296875 26.589844 11.09375 C 26.71875 10.945312 26.691406 10.742188 26.679688 10.5625 C 26.628906 9.742188 26.304688 8.945312 25.765625 8.324219 C 25.304688 7.785156 24.695312 7.382812 24.027344 7.160156 C 24.53125 6.246094 25.589844 5.6875 26.628906 5.773438 C 27.347656 5.820312 28.039062 6.167969 28.511719 6.714844 C 28.949219 7.21875 29.203125 7.882812 29.175781 8.550781 C 28.878906 8.546875 28.582031 8.546875 28.285156 8.550781 C 28.054688 8.554688 27.851562 8.761719 27.851562 8.992188 C 27.839844 9.226562 28.042969 9.453125 28.285156 9.453125 C 28.582031 9.457031 28.882812 9.453125 29.179688 9.453125 C 29.183594 10.460938 29.179688 11.46875 29.183594 12.476562 C 28.039062 12.476562 26.894531 12.476562 25.753906 12.476562 C 25.472656 12.484375 25.179688 12.480469 24.917969 12.363281 C 24.375 12.140625 23.996094 11.582031 23.996094 10.996094 C 24 10.796875 23.867188 10.597656 23.671875 10.546875 C 23.421875 10.464844 23.125 10.644531 23.089844 10.910156 C 23.058594 11.597656 23.359375 12.289062 23.871094 12.75 C 24.316406 13.167969 24.929688 13.394531 25.539062 13.386719 C 26.75 13.386719 27.964844 13.386719 29.179688 13.386719 C 29.1875 15.929688 29.179688 18.476562 29.183594 21.023438 C 26.730469 21.027344 24.277344 21.023438 21.824219 21.027344 C 21.578125 21.011719 21.34375 21.226562 21.351562 21.476562 C 21.347656 21.710938 21.546875 21.929688 21.785156 21.929688 C 24.25 21.933594 26.714844 21.929688 29.183594 21.929688 C 29.179688 24.007812 29.191406 26.085938 29.175781 28.164062 C 28.703125 28.160156 28.234375 28.164062 27.761719 28.164062 C 27.1875 28.164062 26.621094 28.386719 26.199219 28.777344 C 25.722656 29.214844 25.433594 29.863281 25.453125 30.515625 C 25.464844 30.765625 25.722656 30.96875 25.96875 30.925781 C 26.207031 30.894531 26.378906 30.660156 26.363281 30.425781 C 26.371094 29.726562 26.976562 29.109375 27.671875 29.078125 C 28.175781 29.066406 28.679688 29.070312 29.183594 29.074219 C 29.175781 30.183594 29.195312 31.296875 29.171875 32.40625 C 28.878906 32.410156 28.582031 32.402344 28.285156 32.410156 C 28.082031 32.414062 27.894531 32.574219 27.859375 32.777344 C 27.808594 33.019531 27.992188 33.28125 28.238281 33.308594 C 28.472656 33.320312 28.707031 33.304688 28.941406 33.316406 C 28.675781 33.875 28.234375 34.347656 27.683594 34.625 C 26.921875 35.019531 25.972656 35.027344 25.203125 34.644531 C 24.722656 34.398438 24.289062 34.023438 24.042969 33.542969 C 24.507812 33.386719 24.941406 33.144531 25.320312 32.832031 C 25.425781 32.734375 25.554688 32.644531 25.613281 32.507812 C 25.714844 32.292969 25.609375 32.015625 25.394531 31.917969 C 25.21875 31.828125 24.992188 31.878906 24.859375 32.019531 C 24.191406 32.660156 23.214844 32.949219 22.304688 32.78125 C 21.527344 32.648438 20.8125 32.183594 20.375 31.527344 C 20.023438 31.015625 19.851562 30.394531 19.875 29.777344 C 20.25 29.609375 20.617188 29.40625 20.925781 29.132812 C 21.113281 28.960938 21.101562 28.628906 20.902344 28.46875 C 20.726562 28.3125 20.449219 28.339844 20.277344 28.492188 C 19.683594 28.957031 18.914062 29.203125 18.15625 29.140625 C 17.917969 29.113281 17.691406 29.3125 17.675781 29.550781 C 17.652344 29.769531 17.808594 29.992188 18.027344 30.03125 C 18.335938 30.078125 18.652344 30.054688 18.960938 30.015625 C 19 31.179688 19.59375 32.304688 20.539062 32.984375 C 21.269531 33.527344 22.195312 33.792969 23.101562 33.722656 C 23.539062 34.652344 24.371094 35.382812 25.355469 35.675781 C 26.148438 35.921875 27.03125 35.878906 27.800781 35.566406 C 28.917969 35.125 29.785156 34.097656 30.019531 32.917969 C 30.140625 32.351562 30.074219 31.765625 30.09375 31.191406 C 30.871094 31.191406 31.652344 31.191406 32.429688 31.191406 C 32.539062 31.183594 32.652344 31.222656 32.730469 31.304688 C 33.082031 31.652344 33.429688 32 33.78125 32.347656 C 33.566406 32.699219 33.492188 33.132812 33.597656 33.535156 C 33.746094 34.15625 34.320312 34.648438 34.960938 34.695312 C 35.65625 34.769531 36.355469 34.3125 36.570312 33.652344 C 36.804688 32.988281 36.507812 32.195312 35.90625 31.839844 C 35.480469 31.582031 34.925781 31.546875 34.472656 31.75 C 34.117188 31.40625 33.769531 31.054688 33.414062 30.707031 C 33.175781 30.445312 32.828125 30.285156 32.476562 30.285156 C 31.679688 30.285156 30.886719 30.289062 30.089844 30.285156 C 30.09375 29.476562 30.089844 28.667969 30.09375 27.859375 C 31.40625 27.859375 32.722656 27.859375 34.042969 27.859375 C 34.210938 28.40625 34.699219 28.839844 35.265625 28.925781 C 35.917969 29.042969 36.617188 28.691406 36.910156 28.09375 C 37.175781 27.585938 37.113281 26.9375 36.765625 26.484375 C 36.390625 25.976562 35.695312 25.738281 35.09375 25.925781 C 34.601562 26.0625 34.195312 26.460938 34.042969 26.949219 C 32.726562 26.957031 31.414062 26.945312 30.101562 26.953125 C 30.078125 25.945312 30.101562 24.933594 30.089844 23.921875 C 30.273438 23.90625 30.457031 23.917969 30.640625 23.914062 C 32.035156 23.914062 33.429688 23.910156 34.820312 23.917969 C 35.011719 24.554688 35.652344 25.019531 36.316406 25 C 36.929688 25 37.515625 24.601562 37.738281 24.035156 C 37.957031 23.515625 37.847656 22.882812 37.480469 22.457031 C 37.09375 22 36.429688 21.800781 35.859375 21.980469 C 35.371094 22.125 34.972656 22.519531 34.820312 23.003906 C 33.242188 23.003906 31.667969 23.007812 30.089844 23 C 30.09375 21.902344 30.089844 20.800781 30.09375 19.703125 C 30.46875 19.703125 30.84375 19.691406 31.222656 19.707031 C 31.40625 20.339844 32.039062 20.792969 32.695312 20.789062 C 33.425781 20.804688 34.113281 20.234375 34.226562 19.511719 C 34.355469 18.84375 33.96875 18.125 33.347656 17.851562 C 32.890625 17.632812 32.328125 17.667969 31.898438 17.929688 C 31.578125 18.121094 31.332031 18.433594 31.21875 18.789062 C 30.84375 18.800781 30.46875 18.792969 30.09375 18.796875 C 30.09375 17.921875 30.085938 17.046875 30.097656 16.175781 C 31.734375 16.179688 33.371094 16.175781 35.003906 16.175781 C 35.113281 16.171875 35.21875 16.226562 35.292969 16.304688 C 35.582031 16.59375 35.875 16.882812 36.167969 17.175781 C 36.320312 17.339844 36.601562 17.367188 36.78125 17.21875 C 36.984375 17.066406 37.011719 16.738281 36.832031 16.554688 C 36.535156 16.253906 36.230469 15.960938 35.933594 15.660156 C 35.695312 15.414062 35.355469 15.265625 35.011719 15.265625 C 33.371094 15.265625 31.730469 15.265625 30.09375 15.265625 C 30.097656 14.640625 30.082031 14.011719 30.097656 13.382812 C 31.269531 13.390625 32.441406 13.382812 33.609375 13.386719 C 33.976562 13.414062 34.359375 13.328125 34.640625 13.078125 C 35.246094 12.492188 35.832031 11.882812 36.445312 11.296875 C 36.75 11.414062 37.09375 11.4375 37.410156 11.351562 C 38.097656 11.179688 38.609375 10.488281 38.554688 9.777344 C 38.527344 9.191406 38.128906 8.640625 37.582031 8.429688 C 37.074219 8.226562 36.460938 8.316406 36.035156 8.664062 C 35.746094 8.894531 35.542969 9.230469 35.480469 9.597656 C 35.410156 9.988281 35.507812 10.394531 35.722656 10.730469 C 35.167969 11.277344 34.617188 11.824219 34.066406 12.371094 C 33.992188 12.445312 33.890625 12.484375 33.785156 12.476562 C 32.554688 12.476562 31.324219 12.476562 30.089844 12.476562 C 30.089844 11.476562 30.09375 10.476562 30.089844 9.476562 C 30.445312 9.476562 30.796875 9.472656 31.148438 9.476562 C 31.339844 10.117188 31.984375 10.585938 32.652344 10.5625 C 33.265625 10.558594 33.847656 10.15625 34.070312 9.585938 C 34.253906 9.132812 34.199219 8.59375 33.929688 8.1875 C 33.6875 7.808594 33.269531 7.542969 32.820312 7.492188 C 32.417969 7.4375 32 7.554688 31.679688 7.804688 C 31.417969 7.992188 31.25 8.273438 31.136719 8.570312 C 30.789062 8.5625 30.445312 8.5625 30.101562 8.570312 C 30.078125 8.40625 30.089844 8.238281 30.066406 8.074219 C 29.980469 7.320312 29.644531 6.601562 29.132812 6.046875 C 28.5625 5.417969 27.773438 5.003906 26.933594 4.890625 C 26.070312 4.773438 25.164062 4.96875 24.433594 5.445312 M 22.761719 8.714844 C 21.828125 8.816406 21.03125 9.664062 21.039062 10.609375 C 21.054688 10.863281 21.3125 11.0625 21.558594 11.015625 C 21.777344 10.988281 21.941406 10.785156 21.949219 10.566406 C 21.980469 10.117188 22.339844 9.726562 22.777344 9.636719 C 22.96875 9.578125 23.195312 9.660156 23.367188 9.53125 C 23.605469 9.375 23.625 8.992188 23.402344 8.8125 C 23.226562 8.660156 22.976562 8.703125 22.761719 8.714844 M 18.167969 12.84375 C 17.820312 12.886719 17.667969 13.363281 17.921875 13.601562 C 18.082031 13.789062 18.34375 13.722656 18.554688 13.765625 C 19.273438 13.875 19.894531 14.441406 20.070312 15.144531 C 20.234375 15.757812 20.050781 16.445312 19.601562 16.894531 C 19.253906 17.261719 18.75 17.46875 18.246094 17.46875 C 17.980469 17.464844 17.753906 17.722656 17.800781 17.980469 C 17.824219 18.214844 18.054688 18.398438 18.289062 18.375 C 19.273438 18.375 20.222656 17.796875 20.695312 16.9375 C 21.085938 16.242188 21.148438 15.371094 20.859375 14.628906 C 20.460938 13.546875 19.324219 12.769531 18.167969 12.84375 M 39.21875 12.863281 C 38.882812 12.953125 38.578125 13.160156 38.371094 13.441406 C 38.003906 13.925781 37.976562 14.625 38.292969 15.140625 C 38.621094 15.710938 39.34375 16.015625 39.980469 15.851562 C 40.523438 15.730469 40.980469 15.289062 41.117188 14.753906 C 41.230469 14.347656 41.160156 13.898438 40.9375 13.539062 C 40.59375 12.972656 39.859375 12.683594 39.21875 12.863281 M 23.800781 15.597656 C 23.683594 15.644531 23.589844 15.742188 23.546875 15.859375 C 23.496094 16.039062 23.527344 16.230469 23.484375 16.414062 C 23.328125 17.390625 22.492188 18.207031 21.515625 18.34375 C 21.277344 18.394531 20.976562 18.3125 20.804688 18.53125 C 20.5625 18.78125 20.742188 19.25 21.085938 19.277344 C 22.09375 19.3125 23.09375 18.832031 23.714844 18.042969 C 24.183594 17.464844 24.441406 16.722656 24.425781 15.976562 C 24.410156 15.683594 24.070312 15.480469 23.800781 15.597656 M 26.121094 15.738281 C 25.804688 15.824219 25.695312 16.273438 25.941406 16.492188 C 26.109375 16.675781 26.375 16.597656 26.589844 16.671875 C 27.0625 16.816406 27.398438 17.3125 27.347656 17.804688 C 27.308594 18.324219 26.847656 18.773438 26.328125 18.789062 C 26.125 18.78125 25.910156 18.878906 25.835938 19.078125 C 25.722656 19.335938 25.910156 19.667969 26.191406 19.695312 C 26.707031 19.71875 27.226562 19.527344 27.605469 19.179688 C 28.082031 18.753906 28.335938 18.089844 28.242188 17.457031 C 28.164062 16.796875 27.722656 16.199219 27.125 15.914062 C 26.8125 15.773438 26.460938 15.679688 26.121094 15.738281 M 38.035156 18.210938 C 37.847656 18.3125 37.753906 18.550781 37.824219 18.75 C 37.863281 18.882812 37.976562 18.96875 38.070312 19.066406 C 38.320312 19.3125 38.570312 19.558594 38.816406 19.8125 C 38.5625 20.289062 38.582031 20.902344 38.878906 21.355469 C 39.144531 21.773438 39.617188 22.050781 40.113281 22.070312 C 40.441406 22.078125 40.78125 21.992188 41.054688 21.804688 C 41.46875 21.535156 41.730469 21.050781 41.738281 20.558594 C 41.753906 19.980469 41.414062 19.421875 40.902344 19.160156 C 40.457031 18.929688 39.90625 18.933594 39.460938 19.164062 C 39.167969 18.875 38.875 18.582031 38.582031 18.292969 C 38.445312 18.148438 38.207031 18.113281 38.035156 18.210938 M 15.777344 19.101562 C 15.617188 19.152344 15.492188 19.304688 15.476562 19.46875 C 15.429688 20.46875 16.097656 21.433594 17.03125 21.773438 C 17.597656 22 18.21875 21.914062 18.8125 21.929688 C 19.050781 21.917969 19.34375 21.992188 19.523438 21.789062 C 19.769531 21.558594 19.625 21.09375 19.292969 21.039062 C 19.015625 21.007812 18.738281 21.03125 18.464844 21.023438 C 18.113281 21.015625 17.753906 21.0625 17.414062 20.945312 C 16.867188 20.777344 16.445312 20.261719 16.390625 19.691406 C 16.375 19.550781 16.390625 19.394531 16.300781 19.273438 C 16.191406 19.105469 15.960938 19.035156 15.777344 19.101562 M 19.140625 24.425781 C 18.226562 24.59375 17.453125 25.355469 17.292969 26.273438 C 17.253906 26.53125 17.183594 26.871094 17.429688 27.054688 C 17.683594 27.273438 18.128906 27.089844 18.15625 26.757812 C 18.164062 26.503906 18.210938 26.242188 18.339844 26.019531 C 18.578125 25.582031 19.058594 25.296875 19.554688 25.292969 C 20.777344 25.289062 22 25.292969 23.21875 25.292969 C 23.390625 25.289062 23.578125 25.316406 23.722656 25.210938 C 23.894531 25.09375 23.96875 24.859375 23.886719 24.667969 C 23.820312 24.488281 23.628906 24.375 23.441406 24.382812 C 22.175781 24.382812 20.910156 24.382812 19.640625 24.382812 C 19.472656 24.382812 19.304688 24.390625 19.140625 24.425781 M 25.113281 24.417969 C 24.890625 24.5 24.769531 24.773438 24.859375 24.996094 C 24.925781 25.183594 25.121094 25.304688 25.316406 25.292969 C 25.925781 25.292969 26.539062 25.292969 27.148438 25.292969 C 27.398438 25.308594 27.632812 25.085938 27.625 24.835938 C 27.628906 24.601562 27.425781 24.386719 27.191406 24.386719 C 26.609375 24.378906 26.03125 24.386719 25.449219 24.382812 C 25.335938 24.382812 25.21875 24.375 25.113281 24.417969 M 40.863281 24.453125 C 40.222656 24.558594 39.691406 25.105469 39.605469 25.75 C 39.515625 26.347656 39.816406 26.972656 40.332031 27.285156 C 40.707031 27.507812 41.171875 27.570312 41.585938 27.445312 C 42.078125 27.300781 42.484375 26.894531 42.628906 26.40625 C 42.742188 26.03125 42.695312 25.617188 42.519531 25.269531 C 42.226562 24.671875 41.515625 24.320312 40.863281 24.453125 M 21.449219 26.433594 C 21.265625 26.496094 21.136719 26.691406 21.152344 26.886719 C 21.160156 27.117188 21.375 27.3125 21.605469 27.308594 C 21.882812 27.316406 22.15625 27.394531 22.382812 27.554688 C 22.8125 27.84375 23.042969 28.394531 22.945312 28.902344 C 22.839844 29.5 22.296875 29.988281 21.691406 30.007812 C 21.546875 30.007812 21.386719 30.03125 21.285156 30.144531 C 21.097656 30.316406 21.109375 30.648438 21.308594 30.808594 C 21.449219 30.9375 21.648438 30.925781 21.824219 30.90625 C 22.390625 30.855469 22.929688 30.582031 23.304688 30.15625 C 23.738281 29.679688 23.945312 29.007812 23.855469 28.371094 C 23.761719 27.574219 23.199219 26.859375 22.453125 26.566406 C 22.136719 26.449219 21.785156 26.363281 21.449219 26.433594 M 38.988281 29.171875 C 38.480469 29.226562 38.011719 29.550781 37.78125 30.007812 C 37.523438 30.492188 37.566406 31.117188 37.878906 31.570312 C 38.085938 31.875 38.40625 32.101562 38.765625 32.195312 C 39.148438 32.296875 39.566406 32.246094 39.914062 32.050781 C 40.539062 31.722656 40.871094 30.925781 40.644531 30.253906 C 40.445312 29.558594 39.707031 29.078125 38.988281 29.171875 M 18.25 39.171875 C 17.894531 39.269531 17.566406 39.507812 17.421875 39.855469 C 17.148438 40.484375 17.152344 41.1875 17.164062 41.859375 C 17.195312 42.414062 17.234375 43.023438 17.589844 43.476562 C 17.867188 43.835938 18.335938 43.953125 18.769531 43.992188 C 19.425781 44.039062 20.089844 43.980469 20.726562 43.824219 C 20.722656 43.40625 20.714844 42.988281 20.707031 42.570312 C 20.296875 42.578125 19.882812 42.613281 19.472656 42.605469 C 19.28125 42.597656 19.046875 42.566406 18.953125 42.375 C 18.816406 42.109375 18.839844 41.800781 18.824219 41.511719 C 18.828125 41.242188 18.820312 40.960938 18.921875 40.710938 C 19.003906 40.515625 19.234375 40.464844 19.425781 40.449219 C 19.847656 40.429688 20.265625 40.464844 20.683594 40.515625 C 20.699219 40.089844 20.714844 39.664062 20.726562 39.238281 C 19.917969 39.0625 19.0625 38.945312 18.25 39.171875 M 25.441406 39.324219 C 25.082031 39.523438 24.925781 39.941406 24.882812 40.332031 C 24.839844 40.765625 24.835938 41.238281 25.066406 41.625 C 25.308594 42 25.773438 42.121094 26.179688 42.222656 C 26.476562 42.304688 26.800781 42.296875 27.085938 42.410156 C 27.210938 42.535156 27.011719 42.65625 26.894531 42.644531 C 26.25 42.671875 25.605469 42.582031 24.964844 42.5 C 24.941406 42.917969 24.917969 43.339844 24.894531 43.757812 C 25.503906 43.914062 26.132812 43.996094 26.761719 44.015625 C 27.296875 44.015625 27.878906 43.976562 28.316406 43.640625 C 28.703125 43.335938 28.800781 42.808594 28.792969 42.34375 C 28.785156 42.003906 28.777344 41.617188 28.519531 41.363281 C 28.140625 41 27.601562 40.90625 27.105469 40.789062 C 26.929688 40.742188 26.742188 40.726562 26.582031 40.640625 C 26.496094 40.589844 26.515625 40.429688 26.625 40.429688 C 27.28125 40.375 27.941406 40.449219 28.59375 40.515625 C 28.609375 40.089844 28.621094 39.660156 28.636719 39.234375 C 28.1875 39.148438 27.734375 39.097656 27.277344 39.0625 C 26.660156 39.035156 25.996094 39.007812 25.441406 39.324219 M 21.113281 39.332031 C 21.121094 39.738281 21.136719 40.144531 21.144531 40.550781 C 21.53125 40.519531 21.917969 40.496094 22.304688 40.488281 C 22.445312 40.492188 22.601562 40.488281 22.722656 40.5625 C 22.832031 40.617188 22.832031 40.785156 22.734375 40.851562 C 22.632812 40.917969 22.507812 40.921875 22.390625 40.921875 C 22.089844 40.921875 21.785156 40.921875 21.480469 40.921875 C 21.480469 41.34375 21.480469 41.765625 21.480469 42.183594 C 21.886719 42.203125 22.296875 42.144531 22.699219 42.21875 C 22.902344 42.234375 22.929688 42.585938 22.71875 42.617188 C 22.1875 42.691406 21.648438 42.609375 21.117188 42.582031 C 21.105469 42.996094 21.089844 43.410156 21.074219 43.824219 C 21.792969 43.976562 22.535156 44.070312 23.265625 43.957031 C 23.648438 43.890625 24.070312 43.746094 24.277344 43.390625 C 24.488281 43.023438 24.515625 42.574219 24.46875 42.164062 C 24.441406 41.859375 24.210938 41.644531 24 41.449219 C 24.199219 41.3125 24.363281 41.105469 24.394531 40.859375 C 24.453125 40.472656 24.445312 40.050781 24.238281 39.710938 C 24.085938 39.457031 23.804688 39.324219 23.53125 39.25 C 22.734375 39.042969 21.894531 39.113281 21.113281 39.332031 M 29.828125 39.140625 C 29.476562 40.730469 29.121094 42.324219 28.773438 43.914062 C 29.308594 43.914062 29.847656 43.917969 30.382812 43.914062 C 30.449219 43.742188 30.464844 43.546875 30.511719 43.367188 C 30.875 43.367188 31.238281 43.367188 31.601562 43.367188 C 31.648438 43.550781 31.691406 43.734375 31.734375 43.914062 C 32.292969 43.917969 32.847656 43.917969 33.40625 43.917969 C 33.046875 42.324219 32.6875 40.734375 32.328125 39.140625 C 31.496094 39.136719 30.660156 39.140625 29.828125 39.140625 M 33.574219 39.140625 C 33.574219 40.730469 33.574219 42.324219 33.574219 43.917969 C 34.125 43.917969 34.675781 43.917969 35.226562 43.917969 C 35.226562 43.503906 35.226562 43.09375 35.226562 42.683594 C 35.363281 42.683594 35.5 42.683594 35.632812 42.683594 C 35.722656 43.089844 35.816406 43.5 35.898438 43.910156 C 36.460938 43.925781 37.023438 43.914062 37.585938 43.914062 C 37.433594 43.375 37.273438 42.832031 37.117188 42.292969 C 37.570312 41.914062 37.664062 41.28125 37.640625 40.726562 C 37.625 40.273438 37.523438 39.757812 37.128906 39.480469 C 36.726562 39.210938 36.222656 39.160156 35.75 39.140625 C 35.023438 39.136719 34.300781 39.140625 33.574219 39.140625 M 21.71875 46.710938 C 21.71875 47.648438 21.722656 48.589844 21.71875 49.527344 C 21.824219 49.527344 21.929688 49.53125 22.035156 49.527344 C 22.035156 49.210938 22.035156 48.894531 22.035156 48.578125 C 22.355469 48.570312 22.679688 48.601562 22.996094 48.558594 C 23.304688 48.515625 23.558594 48.273438 23.613281 47.96875 C 23.675781 47.648438 23.679688 47.285156 23.492188 47.007812 C 23.34375 46.796875 23.074219 46.722656 22.832031 46.714844 C 22.460938 46.707031 22.089844 46.710938 21.71875 46.710938 M 27.601562 46.675781 C 27.601562 46.796875 27.601562 46.914062 27.601562 47.035156 C 27.703125 47.035156 27.804688 47.035156 27.902344 47.035156 C 27.902344 46.914062 27.902344 46.796875 27.902344 46.675781 C 27.804688 46.675781 27.703125 46.675781 27.601562 46.675781 M 32.425781 46.871094 C 32.425781 47.078125 32.425781 47.285156 32.425781 47.492188 C 32.328125 47.492188 32.234375 47.492188 32.136719 47.492188 C 32.136719 47.582031 32.136719 47.667969 32.136719 47.757812 C 32.234375 47.757812 32.328125 47.757812 32.425781 47.757812 C 32.429688 48.164062 32.417969 48.570312 32.429688 48.976562 C 32.445312 49.164062 32.464844 49.402344 32.648438 49.503906 C 32.882812 49.621094 33.15625 49.566406 33.402344 49.53125 C 33.394531 49.445312 33.390625 49.359375 33.382812 49.277344 C 33.203125 49.277344 33.011719 49.34375 32.839844 49.257812 C 32.734375 49.1875 32.746094 49.042969 32.734375 48.933594 C 32.722656 48.539062 32.730469 48.148438 32.726562 47.757812 C 32.945312 47.753906 33.160156 47.761719 33.375 47.753906 C 33.375 47.667969 33.375 47.582031 33.375 47.496094 C 33.160156 47.488281 32.945312 47.492188 32.726562 47.492188 C 32.726562 47.285156 32.726562 47.078125 32.726562 46.871094 C 32.625 46.871094 32.527344 46.871094 32.425781 46.871094 M 24.382812 47.769531 C 24.382812 47.675781 24.382812 47.585938 24.382812 47.492188 C 24.28125 47.492188 24.183594 47.492188 24.082031 47.492188 C 24.085938 48.171875 24.074219 48.851562 24.085938 49.53125 C 24.1875 49.527344 24.285156 49.527344 24.386719 49.527344 C 24.386719 49.03125 24.390625 48.535156 24.382812 48.042969 C 24.613281 47.902344 24.871094 47.816406 25.128906 47.757812 C 25.128906 47.652344 25.128906 47.550781 25.128906 47.449219 C 24.863281 47.503906 24.613281 47.621094 24.382812 47.769531 M 25.949219 47.480469 C 25.773438 47.519531 25.597656 47.609375 25.507812 47.773438 C 25.378906 48.003906 25.359375 48.277344 25.359375 48.539062 C 25.367188 48.804688 25.390625 49.089844 25.542969 49.3125 C 25.710938 49.539062 26.019531 49.570312 26.277344 49.566406 C 26.519531 49.566406 26.800781 49.503906 26.9375 49.285156 C 27.109375 48.996094 27.109375 48.644531 27.097656 48.316406 C 27.074219 48.042969 27.011719 47.726562 26.761719 47.574219 C 26.515625 47.433594 26.21875 47.433594 25.949219 47.480469 M 28.554688 47.804688 C 28.375 48.136719 28.382812 48.53125 28.425781 48.894531 C 28.460938 49.160156 28.601562 49.449219 28.878906 49.523438 C 29.246094 49.621094 29.628906 49.542969 30 49.503906 C 29.996094 49.421875 29.996094 49.34375 29.992188 49.265625 C 29.746094 49.292969 29.496094 49.300781 29.246094 49.300781 C 29.101562 49.300781 28.945312 49.269531 28.84375 49.15625 C 28.726562 49.011719 28.714844 48.816406 28.707031 48.636719 C 29.15625 48.640625 29.605469 48.636719 30.050781 48.640625 C 30.09375 48.261719 30.078125 47.769531 29.707031 47.554688 C 29.332031 47.367188 28.777344 47.414062 28.554688 47.804688 M 30.722656 47.617188 C 30.453125 47.871094 30.460938 48.28125 30.460938 48.625 C 30.476562 48.933594 30.519531 49.332031 30.835938 49.484375 C 31.160156 49.625 31.53125 49.566406 31.867188 49.511719 C 31.859375 49.425781 31.855469 49.34375 31.851562 49.261719 C 31.554688 49.265625 31.21875 49.367188 30.953125 49.191406 C 30.761719 49.003906 30.78125 48.703125 30.773438 48.453125 C 30.785156 48.222656 30.78125 47.90625 31.023438 47.789062 C 31.285156 47.671875 31.578125 47.75 31.851562 47.757812 C 31.851562 47.675781 31.855469 47.59375 31.859375 47.511719 C 31.484375 47.464844 31.050781 47.367188 30.722656 47.617188 M 27.601562 47.492188 C 27.597656 48.203125 27.613281 48.917969 27.59375 49.628906 C 27.59375 49.917969 27.324219 50.074219 27.105469 50.203125 C 27.144531 50.28125 27.1875 50.359375 27.226562 50.4375 C 27.417969 50.332031 27.617188 50.230469 27.753906 50.058594 C 27.886719 49.890625 27.902344 49.664062 27.902344 49.460938 C 27.902344 48.804688 27.902344 48.148438 27.902344 47.492188 C 27.804688 47.492188 27.703125 47.492188 27.601562 47.492188 Z M 27.601562 47.492188 "/>
<path style=" stroke:none;fill-rule:nonzero;fill:rgb(16.078432%,70.980394%,29.019609%);fill-opacity:1;" d="M 32.453125 8.414062 C 32.796875 8.304688 33.195312 8.546875 33.253906 8.902344 C 33.339844 9.253906 33.050781 9.625 32.695312 9.648438 C 32.355469 9.699219 32.015625 9.421875 31.992188 9.082031 C 31.953125 8.785156 32.164062 8.488281 32.453125 8.414062 Z M 32.453125 8.414062 "/>
<path style=" stroke:none;fill-rule:nonzero;fill:rgb(16.078432%,70.980394%,29.019609%);fill-opacity:1;" d="M 36.769531 9.273438 C 37.121094 9.121094 37.570312 9.355469 37.636719 9.734375 C 37.71875 10.082031 37.445312 10.449219 37.097656 10.488281 C 36.765625 10.546875 36.417969 10.289062 36.375 9.957031 C 36.324219 9.671875 36.503906 9.378906 36.769531 9.273438 Z M 36.769531 9.273438 "/>
<path style=" stroke:none;fill-rule:nonzero;fill:rgb(16.078432%,70.980394%,29.019609%);fill-opacity:1;" d="M 39.386719 13.765625 C 39.71875 13.621094 40.148438 13.828125 40.238281 14.183594 C 40.347656 14.515625 40.109375 14.902344 39.769531 14.96875 C 39.4375 15.054688 39.0625 14.828125 38.996094 14.488281 C 38.925781 14.195312 39.105469 13.871094 39.386719 13.765625 Z M 39.386719 13.765625 "/>
<path style=" stroke:none;fill-rule:nonzero;fill:rgb(16.078432%,70.980394%,29.019609%);fill-opacity:1;" d="M 32.484375 18.652344 C 32.824219 18.519531 33.238281 18.738281 33.320312 19.09375 C 33.40625 19.40625 33.210938 19.75 32.90625 19.847656 C 32.558594 19.976562 32.140625 19.738281 32.074219 19.378906 C 32 19.078125 32.191406 18.746094 32.484375 18.652344 Z M 32.484375 18.652344 "/>
<path style=" stroke:none;fill-rule:nonzero;fill:rgb(16.078432%,70.980394%,29.019609%);fill-opacity:1;" d="M 40.035156 19.914062 C 40.382812 19.8125 40.769531 20.070312 40.820312 20.425781 C 40.890625 20.777344 40.601562 21.132812 40.25 21.15625 C 39.917969 21.207031 39.585938 20.9375 39.554688 20.609375 C 39.503906 20.296875 39.730469 19.980469 40.035156 19.914062 Z M 40.035156 19.914062 "/>
<path style=" stroke:none;fill-rule:nonzero;fill:rgb(16.078432%,70.980394%,29.019609%);fill-opacity:1;" d="M 36.113281 22.855469 C 36.449219 22.742188 36.84375 22.960938 36.921875 23.308594 C 37.03125 23.667969 36.734375 24.0625 36.367188 24.085938 C 36.03125 24.132812 35.699219 23.867188 35.667969 23.53125 C 35.625 23.238281 35.828125 22.933594 36.113281 22.855469 Z M 36.113281 22.855469 "/>
<path style=" stroke:none;fill-rule:nonzero;fill:rgb(16.078432%,70.980394%,29.019609%);fill-opacity:1;" d="M 41.011719 25.34375 C 41.359375 25.261719 41.734375 25.527344 41.777344 25.882812 C 41.835938 26.226562 41.550781 26.574219 41.207031 26.597656 C 40.882812 26.636719 40.550781 26.390625 40.507812 26.066406 C 40.449219 25.738281 40.6875 25.40625 41.011719 25.34375 Z M 41.011719 25.34375 "/>
<path style=" stroke:none;fill-rule:nonzero;fill:rgb(16.078432%,70.980394%,29.019609%);fill-opacity:1;" d="M 35.421875 26.78125 C 35.746094 26.722656 36.09375 26.953125 36.152344 27.28125 C 36.238281 27.640625 35.9375 28.019531 35.574219 28.035156 C 35.238281 28.074219 34.910156 27.796875 34.886719 27.460938 C 34.847656 27.140625 35.101562 26.824219 35.421875 26.78125 Z M 35.421875 26.78125 "/>
<path style=" stroke:none;fill-rule:nonzero;fill:rgb(16.078432%,70.980394%,29.019609%);fill-opacity:1;" d="M 38.957031 30.101562 C 39.300781 29.972656 39.722656 30.207031 39.789062 30.574219 C 39.878906 30.921875 39.601562 31.296875 39.246094 31.332031 C 38.921875 31.382812 38.585938 31.140625 38.535156 30.816406 C 38.46875 30.515625 38.664062 30.195312 38.957031 30.101562 Z M 38.957031 30.101562 "/>
<path style=" stroke:none;fill-rule:nonzero;fill:rgb(16.078432%,70.980394%,29.019609%);fill-opacity:1;" d="M 34.941406 32.546875 C 35.277344 32.453125 35.65625 32.679688 35.722656 33.019531 C 35.8125 33.355469 35.566406 33.71875 35.230469 33.78125 C 34.886719 33.863281 34.515625 33.605469 34.46875 33.257812 C 34.410156 32.941406 34.632812 32.617188 34.941406 32.546875 Z M 34.941406 32.546875 "/>
<path style=" stroke:none;fill-rule:nonzero;fill:rgb(16.078432%,70.980394%,29.019609%);fill-opacity:1;" d="M 30.996094 40.433594 C 31.050781 40.449219 31.167969 40.394531 31.179688 40.480469 C 31.261719 41.019531 31.347656 41.5625 31.429688 42.105469 C 31.195312 42.105469 30.960938 42.105469 30.726562 42.105469 C 30.8125 41.546875 30.90625 40.992188 30.996094 40.433594 Z M 30.996094 40.433594 "/>
<path style=" stroke:none;fill-rule:nonzero;fill:rgb(16.078432%,70.980394%,29.019609%);fill-opacity:1;" d="M 35.222656 40.441406 C 35.40625 40.453125 35.601562 40.410156 35.777344 40.480469 C 35.945312 40.5625 35.980469 40.773438 35.976562 40.941406 C 35.976562 41.105469 35.921875 41.308594 35.746094 41.359375 C 35.574219 41.394531 35.394531 41.371094 35.222656 41.378906 C 35.21875 41.066406 35.21875 40.753906 35.222656 40.441406 Z M 35.222656 40.441406 "/>
<path style=" stroke:none;fill-rule:nonzero;fill:rgb(16.078432%,70.980394%,29.019609%);fill-opacity:1;" d="M 22.03125 46.988281 C 22.300781 46.984375 22.566406 46.980469 22.832031 46.992188 C 23.011719 46.996094 23.203125 47.085938 23.269531 47.265625 C 23.351562 47.492188 23.347656 47.75 23.273438 47.976562 C 23.207031 48.164062 23.027344 48.289062 22.832031 48.296875 C 22.566406 48.308594 22.296875 48.304688 22.03125 48.296875 C 22.035156 47.863281 22.035156 47.425781 22.03125 46.988281 Z M 22.03125 46.988281 "/>
<path style=" stroke:none;fill-rule:nonzero;fill:rgb(16.078432%,70.980394%,29.019609%);fill-opacity:1;" d="M 26.03125 47.738281 C 26.261719 47.695312 26.585938 47.699219 26.703125 47.941406 C 26.8125 48.210938 26.792969 48.511719 26.773438 48.792969 C 26.757812 48.980469 26.699219 49.214844 26.492188 49.273438 C 26.257812 49.328125 25.941406 49.34375 25.78125 49.128906 C 25.640625 48.839844 25.667969 48.503906 25.691406 48.191406 C 25.707031 47.992188 25.816406 47.773438 26.03125 47.738281 Z M 26.03125 47.738281 "/>
<path style=" stroke:none;fill-rule:nonzero;fill:rgb(16.078432%,70.980394%,29.019609%);fill-opacity:1;" d="M 28.863281 47.851562 C 29.035156 47.683594 29.320312 47.671875 29.53125 47.769531 C 29.75 47.890625 29.757812 48.175781 29.765625 48.394531 C 29.410156 48.394531 29.054688 48.398438 28.699219 48.390625 C 28.714844 48.203125 28.726562 47.996094 28.863281 47.851562 Z M 28.863281 47.851562 "/>
<path style=" stroke:none;fill-rule:nonzero;fill:rgb(0%,0%,0%);fill-opacity:1;" d="M 24.433594 5.445312 C 25.164062 4.96875 26.070312 4.773438 26.933594 4.890625 C 27.773438 5.003906 28.5625 5.417969 29.132812 6.046875 C 29.644531 6.601562 29.980469 7.320312 30.066406 8.074219 C 30.089844 8.238281 30.078125 8.40625 30.101562 8.570312 C 30.445312 8.5625 30.789062 8.5625 31.136719 8.570312 C 31.25 8.273438 31.417969 7.992188 31.679688 7.804688 C 32 7.554688 32.417969 7.4375 32.820312 7.492188 C 33.269531 7.542969 33.6875 7.808594 33.929688 8.1875 C 34.199219 8.59375 34.253906 9.132812 34.070312 9.585938 C 33.847656 10.15625 33.265625 10.558594 32.652344 10.5625 C 31.984375 10.585938 31.339844 10.117188 31.148438 9.476562 C 30.796875 9.472656 30.445312 9.476562 30.089844 9.476562 C 30.09375 10.476562 30.089844 11.476562 30.089844 12.476562 C 31.324219 12.476562 32.554688 12.476562 33.785156 12.476562 C 33.890625 12.484375 33.992188 12.445312 34.066406 12.371094 C 34.617188 11.824219 35.167969 11.277344 35.722656 10.730469 C 35.507812 10.394531 35.410156 9.988281 35.480469 9.597656 C 35.542969 9.230469 35.746094 8.894531 36.035156 8.664062 C 36.460938 8.316406 37.074219 8.226562 37.582031 8.429688 C 38.128906 8.640625 38.527344 9.191406 38.554688 9.777344 C 38.609375 10.488281 38.097656 11.179688 37.410156 11.351562 C 37.09375 11.4375 36.75 11.414062 36.445312 11.296875 C 35.832031 11.882812 35.246094 12.492188 34.640625 13.078125 C 34.359375 13.328125 33.976562 13.414062 33.609375 13.386719 C 32.441406 13.382812 31.269531 13.390625 30.097656 13.382812 C 30.082031 14.011719 30.097656 14.640625 30.09375 15.265625 C 31.730469 15.265625 33.371094 15.265625 35.011719 15.265625 C 35.355469 15.265625 35.695312 15.414062 35.933594 15.660156 C 36.230469 15.960938 36.535156 16.253906 36.832031 16.554688 C 37.011719 16.738281 36.984375 17.066406 36.78125 17.21875 C 36.601562 17.367188 36.320312 17.339844 36.167969 17.175781 C 35.875 16.882812 35.582031 16.59375 35.292969 16.304688 C 35.21875 16.226562 35.113281 16.171875 35.003906 16.175781 C 33.371094 16.175781 31.734375 16.179688 30.097656 16.175781 C 30.085938 17.046875 30.09375 17.921875 30.09375 18.796875 C 30.46875 18.792969 30.84375 18.800781 31.21875 18.789062 C 31.332031 18.433594 31.578125 18.121094 31.898438 17.929688 C 32.328125 17.667969 32.890625 17.632812 33.347656 17.851562 C 33.96875 18.125 34.355469 18.84375 34.226562 19.511719 C 34.113281 20.234375 33.425781 20.804688 32.695312 20.789062 C 32.039062 20.792969 31.40625 20.339844 31.222656 19.707031 C 30.84375 19.691406 30.46875 19.703125 30.09375 19.703125 C 30.089844 20.800781 30.09375 21.902344 30.089844 23 C 31.667969 23.007812 33.242188 23.003906 34.820312 23.003906 C 34.972656 22.519531 35.371094 22.125 35.859375 21.980469 C 36.429688 21.800781 37.09375 22 37.480469 22.457031 C 37.847656 22.882812 37.957031 23.515625 37.738281 24.035156 C 37.515625 24.601562 36.929688 25 36.316406 25 C 35.652344 25.019531 35.011719 24.554688 34.820312 23.917969 C 33.429688 23.910156 32.035156 23.914062 30.640625 23.914062 C 30.457031 23.917969 30.273438 23.90625 30.089844 23.921875 C 30.101562 24.933594 30.078125 25.945312 30.101562 26.953125 C 31.414062 26.945312 32.726562 26.957031 34.042969 26.949219 C 34.195312 26.460938 34.601562 26.0625 35.09375 25.925781 C 35.695312 25.738281 36.390625 25.976562 36.765625 26.484375 C 37.113281 26.9375 37.175781 27.585938 36.910156 28.09375 C 36.617188 28.691406 35.917969 29.042969 35.265625 28.925781 C 34.699219 28.839844 34.210938 28.40625 34.042969 27.859375 C 32.722656 27.859375 31.40625 27.859375 30.09375 27.859375 C 30.089844 28.667969 30.09375 29.476562 30.089844 30.285156 C 30.886719 30.289062 31.679688 30.285156 32.476562 30.285156 C 32.828125 30.285156 33.175781 30.445312 33.414062 30.707031 C 33.769531 31.054688 34.117188 31.40625 34.472656 31.75 C 34.925781 31.546875 35.480469 31.582031 35.90625 31.839844 C 36.507812 32.195312 36.804688 32.988281 36.570312 33.652344 C 36.355469 34.3125 35.65625 34.769531 34.960938 34.695312 C 34.320312 34.648438 33.746094 34.15625 33.597656 33.535156 C 33.492188 33.132812 33.566406 32.699219 33.78125 32.347656 C 33.429688 32 33.082031 31.652344 32.730469 31.304688 C 32.652344 31.222656 32.539062 31.183594 32.429688 31.191406 C 31.652344 31.191406 30.871094 31.191406 30.09375 31.191406 C 30.074219 31.765625 30.140625 32.351562 30.019531 32.917969 C 29.785156 34.097656 28.917969 35.125 27.800781 35.566406 C 27.03125 35.878906 26.148438 35.921875 25.355469 35.675781 C 24.371094 35.382812 23.539062 34.652344 23.101562 33.722656 C 22.195312 33.792969 21.269531 33.527344 20.539062 32.984375 C 19.59375 32.304688 19 31.179688 18.960938 30.015625 C 18.652344 30.054688 18.335938 30.078125 18.027344 30.03125 C 17.808594 29.992188 17.652344 29.769531 17.675781 29.550781 C 17.691406 29.3125 17.917969 29.113281 18.15625 29.140625 C 18.914062 29.203125 19.683594 28.957031 20.277344 28.492188 C 20.449219 28.339844 20.726562 28.3125 20.902344 28.46875 C 21.101562 28.628906 21.113281 28.960938 20.925781 29.132812 C 20.617188 29.40625 20.25 29.609375 19.875 29.777344 C 19.851562 30.394531 20.023438 31.015625 20.375 31.527344 C 20.8125 32.183594 21.527344 32.648438 22.304688 32.78125 C 23.214844 32.949219 24.191406 32.660156 24.859375 32.019531 C 24.992188 31.878906 25.21875 31.828125 25.394531 31.917969 C 25.609375 32.015625 25.714844 32.292969 25.613281 32.507812 C 25.554688 32.644531 25.425781 32.734375 25.320312 32.832031 C 24.941406 33.144531 24.507812 33.386719 24.042969 33.542969 C 24.289062 34.023438 24.722656 34.398438 25.203125 34.644531 C 25.972656 35.027344 26.921875 35.019531 27.683594 34.625 C 28.234375 34.347656 28.675781 33.875 28.941406 33.316406 C 28.707031 33.304688 28.472656 33.320312 28.238281 33.308594 C 27.992188 33.28125 27.808594 33.019531 27.859375 32.777344 C 27.894531 32.574219 28.082031 32.414062 28.285156 32.410156 C 28.582031 32.402344 28.878906 32.410156 29.171875 32.40625 C 29.195312 31.296875 29.175781 30.183594 29.183594 29.074219 C 28.679688 29.070312 28.175781 29.066406 27.671875 29.078125 C 26.976562 29.109375 26.371094 29.726562 26.363281 30.425781 C 26.378906 30.660156 26.207031 30.894531 25.96875 30.925781 C 25.722656 30.96875 25.464844 30.765625 25.453125 30.515625 C 25.433594 29.863281 25.722656 29.214844 26.199219 28.777344 C 26.621094 28.386719 27.1875 28.164062 27.761719 28.164062 C 28.234375 28.164062 28.703125 28.160156 29.175781 28.164062 C 29.191406 26.085938 29.179688 24.007812 29.183594 21.929688 C 26.714844 21.929688 24.25 21.933594 21.785156 21.929688 C 21.546875 21.929688 21.347656 21.710938 21.351562 21.476562 C 21.34375 21.226562 21.578125 21.011719 21.824219 21.027344 C 24.277344 21.023438 26.730469 21.027344 29.183594 21.023438 C 29.179688 18.476562 29.1875 15.929688 29.179688 13.386719 C 27.964844 13.386719 26.75 13.386719 25.539062 13.386719 C 24.929688 13.394531 24.316406 13.167969 23.871094 12.75 C 23.359375 12.289062 23.058594 11.597656 23.089844 10.910156 C 23.125 10.644531 23.421875 10.464844 23.671875 10.546875 C 23.867188 10.597656 24 10.796875 23.996094 10.996094 C 23.996094 11.582031 24.375 12.140625 24.917969 12.363281 C 25.179688 12.480469 25.472656 12.484375 25.753906 12.476562 C 26.894531 12.476562 28.039062 12.476562 29.183594 12.476562 C 29.179688 11.46875 29.183594 10.460938 29.179688 9.453125 C 28.882812 9.453125 28.582031 9.457031 28.285156 9.453125 C 28.042969 9.453125 27.839844 9.226562 27.851562 8.992188 C 27.851562 8.761719 28.054688 8.554688 28.285156 8.550781 C 28.582031 8.546875 28.878906 8.546875 29.175781 8.550781 C 29.203125 7.882812 28.949219 7.21875 28.511719 6.714844 C 28.039062 6.167969 27.347656 5.820312 26.628906 5.773438 C 25.589844 5.6875 24.53125 6.246094 24.027344 7.160156 C 24.695312 7.382812 25.304688 7.785156 25.765625 8.324219 C 26.304688 8.945312 26.628906 9.742188 26.679688 10.5625 C 26.691406 10.742188 26.71875 10.945312 26.589844 11.09375 C 26.433594 11.296875 26.101562 11.324219 25.921875 11.136719 C 25.808594 11.039062 25.773438 10.882812 25.777344 10.738281 C 25.761719 9.972656 25.429688 9.222656 24.871094 8.699219 C 24.351562 8.195312 23.636719 7.898438 22.914062 7.882812 C 22.257812 7.855469 21.597656 8.066406 21.070312 8.457031 C 20.289062 9.019531 19.8125 9.992188 19.878906 10.957031 C 19.882812 11.140625 19.957031 11.34375 19.851562 11.515625 C 19.75 11.707031 19.5 11.796875 19.296875 11.722656 C 18.496094 11.46875 17.589844 11.578125 16.875 12.023438 C 16.253906 12.398438 15.777344 13.011719 15.578125 13.707031 C 15.410156 14.277344 15.433594 14.902344 15.621094 15.460938 C 16.222656 15.242188 16.863281 15.117188 17.503906 15.125 C 17.714844 15.121094 17.910156 15.285156 17.945312 15.496094 C 18.003906 15.757812 17.773438 16.03125 17.503906 16.023438 C 16.726562 16.035156 15.945312 16.230469 15.277344 16.636719 C 14.492188 17.09375 13.851562 17.804688 13.496094 18.644531 C 13.054688 19.660156 13.03125 20.851562 13.429688 21.886719 C 13.765625 22.78125 14.417969 23.550781 15.238281 24.035156 C 15.597656 23.53125 16.074219 23.105469 16.625 22.824219 C 16.863281 22.714844 17.160156 22.867188 17.226562 23.113281 C 17.296875 23.328125 17.179688 23.5625 16.980469 23.660156 C 16.335938 24.011719 15.835938 24.613281 15.609375 25.3125 C 15.289062 26.261719 15.511719 27.375 16.175781 28.128906 C 16.328125 28.277344 16.359375 28.539062 16.230469 28.710938 C 16.089844 28.933594 15.746094 28.972656 15.558594 28.792969 C 14.582031 27.761719 14.289062 26.160156 14.8125 24.84375 C 13.65625 24.15625 12.769531 23.019531 12.421875 21.71875 C 12.140625 20.679688 12.183594 19.550781 12.558594 18.539062 C 12.960938 17.421875 13.769531 16.464844 14.792969 15.867188 C 14.507812 15.070312 14.472656 14.183594 14.730469 13.375 C 15.003906 12.484375 15.628906 11.707031 16.429688 11.230469 C 17.179688 10.769531 18.09375 10.597656 18.964844 10.71875 C 18.980469 9.84375 19.316406 8.980469 19.890625 8.320312 C 20.667969 7.402344 21.894531 6.894531 23.09375 6.980469 C 23.386719 6.355469 23.851562 5.816406 24.433594 5.445312 M 32.453125 8.414062 C 32.164062 8.488281 31.953125 8.785156 31.992188 9.082031 C 32.015625 9.421875 32.355469 9.699219 32.695312 9.648438 C 33.050781 9.625 33.339844 9.253906 33.253906 8.902344 C 33.195312 8.546875 32.796875 8.304688 32.453125 8.414062 M 36.769531 9.273438 C 36.503906 9.378906 36.324219 9.671875 36.375 9.957031 C 36.417969 10.289062 36.765625 10.546875 37.097656 10.488281 C 37.445312 10.449219 37.71875 10.082031 37.636719 9.734375 C 37.570312 9.355469 37.121094 9.121094 36.769531 9.273438 M 32.484375 18.652344 C 32.191406 18.746094 32 19.078125 32.074219 19.378906 C 32.140625 19.738281 32.558594 19.976562 32.90625 19.847656 C 33.210938 19.75 33.40625 19.40625 33.320312 19.09375 C 33.238281 18.738281 32.824219 18.519531 32.484375 18.652344 M 36.113281 22.855469 C 35.828125 22.933594 35.625 23.238281 35.667969 23.53125 C 35.699219 23.867188 36.03125 24.132812 36.367188 24.085938 C 36.734375 24.0625 37.03125 23.667969 36.921875 23.308594 C 36.84375 22.960938 36.449219 22.742188 36.113281 22.855469 M 35.421875 26.78125 C 35.101562 26.824219 34.847656 27.140625 34.886719 27.460938 C 34.910156 27.796875 35.238281 28.074219 35.574219 28.035156 C 35.9375 28.019531 36.238281 27.640625 36.152344 27.28125 C 36.09375 26.953125 35.746094 26.722656 35.421875 26.78125 M 34.941406 32.546875 C 34.632812 32.617188 34.410156 32.941406 34.46875 33.257812 C 34.515625 33.605469 34.886719 33.863281 35.230469 33.78125 C 35.566406 33.71875 35.8125 33.355469 35.722656 33.019531 C 35.65625 32.679688 35.277344 32.453125 34.941406 32.546875 Z M 34.941406 32.546875 "/>
<path style=" stroke:none;fill-rule:nonzero;fill:rgb(0%,0%,0%);fill-opacity:1;" d="M 22.761719 8.714844 C 22.976562 8.703125 23.226562 8.660156 23.402344 8.8125 C 23.625 8.992188 23.605469 9.375 23.367188 9.53125 C 23.195312 9.660156 22.96875 9.578125 22.777344 9.636719 C 22.339844 9.726562 21.980469 10.117188 21.949219 10.566406 C 21.941406 10.785156 21.777344 10.988281 21.558594 11.015625 C 21.3125 11.0625 21.054688 10.863281 21.039062 10.609375 C 21.03125 9.664062 21.828125 8.816406 22.761719 8.714844 Z M 22.761719 8.714844 "/>
<path style=" stroke:none;fill-rule:nonzero;fill:rgb(0%,0%,0%);fill-opacity:1;" d="M 18.167969 12.84375 C 19.324219 12.769531 20.460938 13.546875 20.859375 14.628906 C 21.148438 15.371094 21.085938 16.242188 20.695312 16.9375 C 20.222656 17.796875 19.273438 18.375 18.289062 18.375 C 18.054688 18.398438 17.824219 18.214844 17.800781 17.980469 C 17.753906 17.722656 17.980469 17.464844 18.246094 17.46875 C 18.75 17.46875 19.253906 17.261719 19.601562 16.894531 C 20.050781 16.445312 20.234375 15.757812 20.070312 15.144531 C 19.894531 14.441406 19.273438 13.875 18.554688 13.765625 C 18.34375 13.722656 18.082031 13.789062 17.921875 13.601562 C 17.667969 13.363281 17.820312 12.886719 18.167969 12.84375 Z M 18.167969 12.84375 "/>
<path style=" stroke:none;fill-rule:nonzero;fill:rgb(0%,0%,0%);fill-opacity:1;" d="M 39.21875 12.863281 C 39.859375 12.683594 40.59375 12.972656 40.9375 13.539062 C 41.160156 13.898438 41.230469 14.347656 41.117188 14.753906 C 40.980469 15.289062 40.523438 15.730469 39.980469 15.851562 C 39.34375 16.015625 38.621094 15.710938 38.292969 15.140625 C 37.976562 14.625 38.003906 13.925781 38.371094 13.441406 C 38.578125 13.160156 38.882812 12.953125 39.21875 12.863281 M 39.386719 13.765625 C 39.105469 13.871094 38.925781 14.195312 38.996094 14.488281 C 39.0625 14.828125 39.4375 15.054688 39.769531 14.96875 C 40.109375 14.902344 40.347656 14.515625 40.238281 14.183594 C 40.148438 13.828125 39.71875 13.621094 39.386719 13.765625 Z M 39.386719 13.765625 "/>
<path style=" stroke:none;fill-rule:nonzero;fill:rgb(0%,0%,0%);fill-opacity:1;" d="M 23.800781 15.597656 C 24.070312 15.480469 24.410156 15.683594 24.425781 15.976562 C 24.441406 16.722656 24.183594 17.464844 23.714844 18.042969 C 23.09375 18.832031 22.09375 19.3125 21.085938 19.277344 C 20.742188 19.25 20.5625 18.78125 20.804688 18.53125 C 20.976562 18.3125 21.277344 18.394531 21.515625 18.34375 C 22.492188 18.207031 23.328125 17.390625 23.484375 16.414062 C 23.527344 16.230469 23.496094 16.039062 23.546875 15.859375 C 23.589844 15.742188 23.683594 15.644531 23.800781 15.597656 Z M 23.800781 15.597656 "/>
<path style=" stroke:none;fill-rule:nonzero;fill:rgb(0%,0%,0%);fill-opacity:1;" d="M 26.121094 15.738281 C 26.460938 15.679688 26.8125 15.773438 27.125 15.914062 C 27.722656 16.199219 28.164062 16.796875 28.242188 17.457031 C 28.335938 18.089844 28.082031 18.753906 27.605469 19.179688 C 27.226562 19.527344 26.707031 19.71875 26.191406 19.695312 C 25.910156 19.667969 25.722656 19.335938 25.835938 19.078125 C 25.910156 18.878906 26.125 18.78125 26.328125 18.789062 C 26.847656 18.773438 27.308594 18.324219 27.347656 17.804688 C 27.398438 17.3125 27.0625 16.816406 26.589844 16.671875 C 26.375 16.597656 26.109375 16.675781 25.941406 16.492188 C 25.695312 16.273438 25.804688 15.824219 26.121094 15.738281 Z M 26.121094 15.738281 "/>
<path style=" stroke:none;fill-rule:nonzero;fill:rgb(0%,0%,0%);fill-opacity:1;" d="M 38.035156 18.210938 C 38.207031 18.113281 38.445312 18.148438 38.582031 18.292969 C 38.875 18.582031 39.167969 18.875 39.460938 19.164062 C 39.90625 18.933594 40.457031 18.929688 40.902344 19.160156 C 41.414062 19.421875 41.753906 19.980469 41.738281 20.558594 C 41.730469 21.050781 41.46875 21.535156 41.054688 21.804688 C 40.78125 21.992188 40.441406 22.078125 40.113281 22.070312 C 39.617188 22.050781 39.144531 21.773438 38.878906 21.355469 C 38.582031 20.902344 38.5625 20.289062 38.816406 19.8125 C 38.570312 19.558594 38.320312 19.3125 38.070312 19.066406 C 37.976562 18.96875 37.863281 18.882812 37.824219 18.75 C 37.753906 18.550781 37.847656 18.3125 38.035156 18.210938 M 40.035156 19.914062 C 39.730469 19.980469 39.503906 20.296875 39.554688 20.609375 C 39.585938 20.9375 39.917969 21.207031 40.25 21.15625 C 40.601562 21.132812 40.890625 20.777344 40.820312 20.425781 C 40.769531 20.070312 40.382812 19.8125 40.035156 19.914062 Z M 40.035156 19.914062 "/>
<path style=" stroke:none;fill-rule:nonzero;fill:rgb(0%,0%,0%);fill-opacity:1;" d="M 15.777344 19.101562 C 15.960938 19.035156 16.191406 19.105469 16.300781 19.273438 C 16.390625 19.394531 16.375 19.550781 16.390625 19.691406 C 16.445312 20.261719 16.867188 20.777344 17.414062 20.945312 C 17.753906 21.0625 18.113281 21.015625 18.464844 21.023438 C 18.738281 21.03125 19.015625 21.007812 19.292969 21.039062 C 19.625 21.09375 19.769531 21.558594 19.523438 21.789062 C 19.34375 21.992188 19.050781 21.917969 18.8125 21.929688 C 18.21875 21.914062 17.597656 22 17.03125 21.773438 C 16.097656 21.433594 15.429688 20.46875 15.476562 19.46875 C 15.492188 19.304688 15.617188 19.152344 15.777344 19.101562 Z M 15.777344 19.101562 "/>
<path style=" stroke:none;fill-rule:nonzero;fill:rgb(0%,0%,0%);fill-opacity:1;" d="M 19.140625 24.425781 C 19.304688 24.390625 19.472656 24.382812 19.640625 24.382812 C 20.910156 24.382812 22.175781 24.382812 23.441406 24.382812 C 23.628906 24.375 23.820312 24.488281 23.886719 24.667969 C 23.96875 24.859375 23.894531 25.09375 23.722656 25.210938 C 23.578125 25.316406 23.390625 25.289062 23.21875 25.292969 C 22 25.292969 20.777344 25.289062 19.554688 25.292969 C 19.058594 25.296875 18.578125 25.582031 18.339844 26.019531 C 18.210938 26.242188 18.164062 26.503906 18.15625 26.757812 C 18.128906 27.089844 17.683594 27.273438 17.429688 27.054688 C 17.183594 26.871094 17.253906 26.53125 17.292969 26.273438 C 17.453125 25.355469 18.226562 24.59375 19.140625 24.425781 Z M 19.140625 24.425781 "/>
<path style=" stroke:none;fill-rule:nonzero;fill:rgb(0%,0%,0%);fill-opacity:1;" d="M 25.113281 24.417969 C 25.21875 24.375 25.335938 24.382812 25.449219 24.382812 C 26.03125 24.386719 26.609375 24.378906 27.191406 24.386719 C 27.425781 24.386719 27.628906 24.601562 27.625 24.835938 C 27.632812 25.085938 27.398438 25.308594 27.148438 25.292969 C 26.539062 25.292969 25.925781 25.292969 25.316406 25.292969 C 25.121094 25.304688 24.925781 25.183594 24.859375 24.996094 C 24.769531 24.773438 24.890625 24.5 25.113281 24.417969 Z M 25.113281 24.417969 "/>
<path style=" stroke:none;fill-rule:nonzero;fill:rgb(0%,0%,0%);fill-opacity:1;" d="M 40.863281 24.453125 C 41.515625 24.320312 42.226562 24.671875 42.519531 25.269531 C 42.695312 25.617188 42.742188 26.03125 42.628906 26.40625 C 42.484375 26.894531 42.078125 27.300781 41.585938 27.445312 C 41.171875 27.570312 40.707031 27.507812 40.332031 27.285156 C 39.816406 26.972656 39.515625 26.347656 39.605469 25.75 C 39.691406 25.105469 40.222656 24.558594 40.863281 24.453125 M 41.011719 25.34375 C 40.6875 25.40625 40.449219 25.738281 40.507812 26.066406 C 40.550781 26.390625 40.882812 26.636719 41.207031 26.597656 C 41.550781 26.574219 41.835938 26.226562 41.777344 25.882812 C 41.734375 25.527344 41.359375 25.261719 41.011719 25.34375 Z M 41.011719 25.34375 "/>
<path style=" stroke:none;fill-rule:nonzero;fill:rgb(0%,0%,0%);fill-opacity:1;" d="M 21.449219 26.433594 C 21.785156 26.363281 22.136719 26.449219 22.453125 26.566406 C 23.199219 26.859375 23.761719 27.574219 23.855469 28.371094 C 23.945312 29.007812 23.738281 29.679688 23.304688 30.15625 C 22.929688 30.582031 22.390625 30.855469 21.824219 30.90625 C 21.648438 30.925781 21.449219 30.9375 21.308594 30.808594 C 21.109375 30.648438 21.097656 30.316406 21.285156 30.144531 C 21.386719 30.03125 21.546875 30.007812 21.691406 30.007812 C 22.296875 29.988281 22.839844 29.5 22.945312 28.902344 C 23.042969 28.394531 22.8125 27.84375 22.382812 27.554688 C 22.15625 27.394531 21.882812 27.316406 21.605469 27.308594 C 21.375 27.3125 21.160156 27.117188 21.152344 26.886719 C 21.136719 26.691406 21.265625 26.496094 21.449219 26.433594 Z M 21.449219 26.433594 "/>
<path style=" stroke:none;fill-rule:nonzero;fill:rgb(0%,0%,0%);fill-opacity:1;" d="M 38.988281 29.171875 C 39.707031 29.078125 40.445312 29.558594 40.644531 30.253906 C 40.871094 30.925781 40.539062 31.722656 39.914062 32.050781 C 39.566406 32.246094 39.148438 32.296875 38.765625 32.195312 C 38.40625 32.101562 38.085938 31.875 37.878906 31.570312 C 37.566406 31.117188 37.523438 30.492188 37.78125 30.007812 C 38.011719 29.550781 38.480469 29.226562 38.988281 29.171875 M 38.957031 30.101562 C 38.664062 30.195312 38.46875 30.515625 38.535156 30.816406 C 38.585938 31.140625 38.921875 31.382812 39.246094 31.332031 C 39.601562 31.296875 39.878906 30.921875 39.789062 30.574219 C 39.722656 30.207031 39.300781 29.972656 38.957031 30.101562 Z M 38.957031 30.101562 "/>
<path style=" stroke:none;fill-rule:nonzero;fill:rgb(100%,100%,100%);fill-opacity:1;" d="M 18.25 39.171875 C 19.0625 38.945312 19.917969 39.0625 20.726562 39.238281 C 20.714844 39.664062 20.699219 40.089844 20.683594 40.515625 C 20.265625 40.464844 19.847656 40.429688 19.425781 40.449219 C 19.234375 40.464844 19.003906 40.515625 18.921875 40.710938 C 18.820312 40.960938 18.828125 41.242188 18.824219 41.511719 C 18.839844 41.800781 18.816406 42.109375 18.953125 42.375 C 19.046875 42.566406 19.28125 42.597656 19.472656 42.605469 C 19.882812 42.613281 20.296875 42.578125 20.707031 42.570312 C 20.714844 42.988281 20.722656 43.40625 20.726562 43.824219 C 20.089844 43.980469 19.425781 44.039062 18.769531 43.992188 C 18.335938 43.953125 17.867188 43.835938 17.589844 43.476562 C 17.234375 43.023438 17.195312 42.414062 17.164062 41.859375 C 17.152344 41.1875 17.148438 40.484375 17.421875 39.855469 C 17.566406 39.507812 17.894531 39.269531 18.25 39.171875 Z M 18.25 39.171875 "/>
<path style=" stroke:none;fill-rule:nonzero;fill:rgb(100%,100%,100%);fill-opacity:1;" d="M 25.441406 39.324219 C 25.996094 39.007812 26.660156 39.035156 27.277344 39.0625 C 27.734375 39.097656 28.1875 39.148438 28.636719 39.234375 C 28.621094 39.660156 28.609375 40.089844 28.59375 40.515625 C 27.941406 40.449219 27.28125 40.375 26.625 40.429688 C 26.515625 40.429688 26.496094 40.589844 26.582031 40.640625 C 26.742188 40.726562 26.929688 40.742188 27.105469 40.789062 C 27.601562 40.90625 28.140625 41 28.519531 41.363281 C 28.777344 41.617188 28.785156 42.003906 28.792969 42.34375 C 28.800781 42.808594 28.703125 43.335938 28.316406 43.640625 C 27.878906 43.976562 27.296875 44.015625 26.761719 44.015625 C 26.132812 43.996094 25.503906 43.914062 24.894531 43.757812 C 24.917969 43.339844 24.941406 42.917969 24.964844 42.5 C 25.605469 42.582031 26.25 42.671875 26.894531 42.644531 C 27.011719 42.65625 27.210938 42.535156 27.085938 42.410156 C 26.800781 42.296875 26.476562 42.304688 26.179688 42.222656 C 25.773438 42.121094 25.308594 42 25.066406 41.625 C 24.835938 41.238281 24.839844 40.765625 24.882812 40.332031 C 24.925781 39.941406 25.082031 39.523438 25.441406 39.324219 Z M 25.441406 39.324219 "/>
<path style=" stroke:none;fill-rule:nonzero;fill:rgb(100%,100%,100%);fill-opacity:1;" d="M 21.113281 39.332031 C 21.894531 39.113281 22.734375 39.042969 23.53125 39.25 C 23.804688 39.324219 24.085938 39.457031 24.238281 39.710938 C 24.445312 40.050781 24.453125 40.472656 24.394531 40.859375 C 24.363281 41.105469 24.199219 41.3125 24 41.449219 C 24.210938 41.644531 24.441406 41.859375 24.46875 42.164062 C 24.515625 42.574219 24.488281 43.023438 24.277344 43.390625 C 24.070312 43.746094 23.648438 43.890625 23.265625 43.957031 C 22.535156 44.070312 21.792969 43.976562 21.074219 43.824219 C 21.089844 43.410156 21.105469 42.996094 21.117188 42.582031 C 21.648438 42.609375 22.1875 42.691406 22.71875 42.617188 C 22.929688 42.585938 22.902344 42.234375 22.699219 42.21875 C 22.296875 42.144531 21.886719 42.203125 21.480469 42.183594 C 21.480469 41.765625 21.480469 41.34375 21.480469 40.921875 C 21.785156 40.921875 22.089844 40.921875 22.390625 40.921875 C 22.507812 40.921875 22.632812 40.917969 22.734375 40.851562 C 22.832031 40.785156 22.832031 40.617188 22.722656 40.5625 C 22.601562 40.488281 22.445312 40.492188 22.304688 40.488281 C 21.917969 40.496094 21.53125 40.519531 21.144531 40.550781 C 21.136719 40.144531 21.121094 39.738281 21.113281 39.332031 Z M 21.113281 39.332031 "/>
<path style=" stroke:none;fill-rule:nonzero;fill:rgb(100%,100%,100%);fill-opacity:1;" d="M 29.828125 39.140625 C 30.660156 39.140625 31.496094 39.136719 32.328125 39.140625 C 32.6875 40.734375 33.046875 42.324219 33.40625 43.917969 C 32.847656 43.917969 32.292969 43.917969 31.734375 43.914062 C 31.691406 43.734375 31.648438 43.550781 31.601562 43.367188 C 31.238281 43.367188 30.875 43.367188 30.511719 43.367188 C 30.464844 43.546875 30.449219 43.742188 30.382812 43.914062 C 29.847656 43.917969 29.308594 43.914062 28.773438 43.914062 C 29.121094 42.324219 29.476562 40.730469 29.828125 39.140625 M 30.996094 40.433594 C 30.90625 40.992188 30.8125 41.546875 30.726562 42.105469 C 30.960938 42.105469 31.195312 42.105469 31.429688 42.105469 C 31.347656 41.5625 31.261719 41.019531 31.179688 40.480469 C 31.167969 40.394531 31.050781 40.449219 30.996094 40.433594 Z M 30.996094 40.433594 "/>
<path style=" stroke:none;fill-rule:nonzero;fill:rgb(100%,100%,100%);fill-opacity:1;" d="M 33.574219 39.140625 C 34.300781 39.140625 35.023438 39.136719 35.75 39.140625 C 36.222656 39.160156 36.726562 39.210938 37.128906 39.480469 C 37.523438 39.757812 37.625 40.273438 37.640625 40.726562 C 37.664062 41.28125 37.570312 41.914062 37.117188 42.292969 C 37.273438 42.832031 37.433594 43.375 37.585938 43.914062 C 37.023438 43.914062 36.460938 43.925781 35.898438 43.910156 C 35.816406 43.5 35.722656 43.089844 35.632812 42.683594 C 35.5 42.683594 35.363281 42.683594 35.226562 42.683594 C 35.226562 43.09375 35.226562 43.503906 35.226562 43.917969 C 34.675781 43.917969 34.125 43.917969 33.574219 43.917969 C 33.574219 42.324219 33.574219 40.730469 33.574219 39.140625 M 35.222656 40.441406 C 35.21875 40.753906 35.21875 41.066406 35.222656 41.378906 C 35.394531 41.371094 35.574219 41.394531 35.746094 41.359375 C 35.921875 41.308594 35.976562 41.105469 35.976562 40.941406 C 35.980469 40.773438 35.945312 40.5625 35.777344 40.480469 C 35.601562 40.410156 35.40625 40.453125 35.222656 40.441406 Z M 35.222656 40.441406 "/>
<path style=" stroke:none;fill-rule:nonzero;fill:rgb(100%,100%,100%);fill-opacity:1;" d="M 21.71875 46.710938 C 22.089844 46.710938 22.460938 46.707031 22.832031 46.714844 C 23.074219 46.722656 23.34375 46.796875 23.492188 47.007812 C 23.679688 47.285156 23.675781 47.648438 23.613281 47.96875 C 23.558594 48.273438 23.304688 48.515625 22.996094 48.558594 C 22.679688 48.601562 22.355469 48.570312 22.035156 48.578125 C 22.035156 48.894531 22.035156 49.210938 22.035156 49.527344 C 21.929688 49.53125 21.824219 49.527344 21.71875 49.527344 C 21.722656 48.589844 21.71875 47.648438 21.71875 46.710938 M 22.03125 46.988281 C 22.035156 47.425781 22.035156 47.863281 22.03125 48.296875 C 22.296875 48.304688 22.566406 48.308594 22.832031 48.296875 C 23.027344 48.289062 23.207031 48.164062 23.273438 47.976562 C 23.347656 47.75 23.351562 47.492188 23.269531 47.265625 C 23.203125 47.085938 23.011719 46.996094 22.832031 46.992188 C 22.566406 46.980469 22.300781 46.984375 22.03125 46.988281 Z M 22.03125 46.988281 "/>
<path style=" stroke:none;fill-rule:nonzero;fill:rgb(100%,100%,100%);fill-opacity:1;" d="M 27.601562 46.675781 C 27.703125 46.675781 27.804688 46.675781 27.902344 46.675781 C 27.902344 46.796875 27.902344 46.914062 27.902344 47.035156 C 27.804688 47.035156 27.703125 47.035156 27.601562 47.035156 C 27.601562 46.914062 27.601562 46.796875 27.601562 46.675781 Z M 27.601562 46.675781 "/>
<path style=" stroke:none;fill-rule:nonzero;fill:rgb(100%,100%,100%);fill-opacity:1;" d="M 32.425781 46.871094 C 32.527344 46.871094 32.625 46.871094 32.726562 46.871094 C 32.726562 47.078125 32.726562 47.285156 32.726562 47.492188 C 32.945312 47.492188 33.160156 47.488281 33.375 47.496094 C 33.375 47.582031 33.375 47.667969 33.375 47.753906 C 33.160156 47.761719 32.945312 47.753906 32.726562 47.757812 C 32.730469 48.148438 32.722656 48.539062 32.734375 48.933594 C 32.746094 49.042969 32.734375 49.1875 32.839844 49.257812 C 33.011719 49.34375 33.203125 49.277344 33.382812 49.277344 C 33.390625 49.359375 33.394531 49.445312 33.402344 49.53125 C 33.15625 49.566406 32.882812 49.621094 32.648438 49.503906 C 32.464844 49.402344 32.445312 49.164062 32.429688 48.976562 C 32.417969 48.570312 32.429688 48.164062 32.425781 47.757812 C 32.328125 47.757812 32.234375 47.757812 32.136719 47.757812 C 32.136719 47.667969 32.136719 47.582031 32.136719 47.492188 C 32.234375 47.492188 32.328125 47.492188 32.425781 47.492188 C 32.425781 47.285156 32.425781 47.078125 32.425781 46.871094 Z M 32.425781 46.871094 "/>
<path style=" stroke:none;fill-rule:nonzero;fill:rgb(100%,100%,100%);fill-opacity:1;" d="M 24.382812 47.769531 C 24.613281 47.621094 24.863281 47.503906 25.128906 47.449219 C 25.128906 47.550781 25.128906 47.652344 25.128906 47.757812 C 24.871094 47.816406 24.613281 47.902344 24.382812 48.042969 C 24.390625 48.535156 24.386719 49.03125 24.386719 49.527344 C 24.285156 49.527344 24.1875 49.527344 24.085938 49.53125 C 24.074219 48.851562 24.085938 48.171875 24.082031 47.492188 C 24.183594 47.492188 24.28125 47.492188 24.382812 47.492188 C 24.382812 47.585938 24.382812 47.675781 24.382812 47.769531 Z M 24.382812 47.769531 "/>
<path style=" stroke:none;fill-rule:nonzero;fill:rgb(100%,100%,100%);fill-opacity:1;" d="M 25.949219 47.480469 C 26.21875 47.433594 26.515625 47.433594 26.761719 47.574219 C 27.011719 47.726562 27.074219 48.042969 27.097656 48.316406 C 27.109375 48.644531 27.109375 48.996094 26.9375 49.285156 C 26.800781 49.503906 26.519531 49.566406 26.277344 49.566406 C 26.019531 49.570312 25.710938 49.539062 25.542969 49.3125 C 25.390625 49.089844 25.367188 48.804688 25.359375 48.539062 C 25.359375 48.277344 25.378906 48.003906 25.507812 47.773438 C 25.597656 47.609375 25.773438 47.519531 25.949219 47.480469 M 26.03125 47.738281 C 25.816406 47.773438 25.707031 47.992188 25.691406 48.191406 C 25.667969 48.503906 25.640625 48.839844 25.78125 49.128906 C 25.941406 49.34375 26.257812 49.328125 26.492188 49.273438 C 26.699219 49.214844 26.757812 48.980469 26.773438 48.792969 C 26.792969 48.511719 26.8125 48.210938 26.703125 47.941406 C 26.585938 47.699219 26.261719 47.695312 26.03125 47.738281 Z M 26.03125 47.738281 "/>
<path style=" stroke:none;fill-rule:nonzero;fill:rgb(100%,100%,100%);fill-opacity:1;" d="M 28.554688 47.804688 C 28.777344 47.414062 29.332031 47.367188 29.707031 47.554688 C 30.078125 47.769531 30.09375 48.261719 30.050781 48.640625 C 29.605469 48.636719 29.15625 48.640625 28.707031 48.636719 C 28.714844 48.816406 28.726562 49.011719 28.84375 49.15625 C 28.945312 49.269531 29.101562 49.300781 29.246094 49.300781 C 29.496094 49.300781 29.746094 49.292969 29.992188 49.265625 C 29.996094 49.34375 29.996094 49.421875 30 49.503906 C 29.628906 49.542969 29.246094 49.621094 28.878906 49.523438 C 28.601562 49.449219 28.460938 49.160156 28.425781 48.894531 C 28.382812 48.53125 28.375 48.136719 28.554688 47.804688 M 28.863281 47.851562 C 28.726562 47.996094 28.714844 48.203125 28.699219 48.390625 C 29.054688 48.398438 29.410156 48.394531 29.765625 48.394531 C 29.757812 48.175781 29.75 47.890625 29.53125 47.769531 C 29.320312 47.671875 29.035156 47.683594 28.863281 47.851562 Z M 28.863281 47.851562 "/>
<path style=" stroke:none;fill-rule:nonzero;fill:rgb(100%,100%,100%);fill-opacity:1;" d="M 30.722656 47.617188 C 31.050781 47.367188 31.484375 47.464844 31.859375 47.511719 C 31.855469 47.59375 31.851562 47.675781 31.851562 47.757812 C 31.578125 47.75 31.285156 47.671875 31.023438 47.789062 C 30.78125 47.90625 30.785156 48.222656 30.773438 48.453125 C 30.78125 48.703125 30.761719 49.003906 30.953125 49.191406 C 31.21875 49.367188 31.554688 49.265625 31.851562 49.261719 C 31.855469 49.34375 31.859375 49.425781 31.867188 49.511719 C 31.53125 49.566406 31.160156 49.625 30.835938 49.484375 C 30.519531 49.332031 30.476562 48.933594 30.460938 48.625 C 30.460938 48.28125 30.453125 47.871094 30.722656 47.617188 Z M 30.722656 47.617188 "/>
<path style=" stroke:none;fill-rule:nonzero;fill:rgb(100%,100%,100%);fill-opacity:1;" d="M 27.601562 47.492188 C 27.703125 47.492188 27.804688 47.492188 27.902344 47.492188 C 27.902344 48.148438 27.902344 48.804688 27.902344 49.460938 C 27.902344 49.664062 27.886719 49.890625 27.753906 50.058594 C 27.617188 50.230469 27.417969 50.332031 27.226562 50.4375 C 27.1875 50.359375 27.144531 50.28125 27.105469 50.203125 C 27.324219 50.074219 27.59375 49.917969 27.59375 49.628906 C 27.613281 48.917969 27.597656 48.203125 27.601562 47.492188 Z M 27.601562 47.492188 "/>
</g>
</svg>
